<?xml version="1.0" encoding="UTF-8" standalone="no"?>
<svg width="102px" height="116px" viewBox="0 0 102 116" version="1.1" xmlns="http://www.w3.org/2000/svg" xmlns:xlink="http://www.w3.org/1999/xlink">
    <!-- Generator: Sketch 39.1 (31720) - http://www.bohemiancoding.com/sketch -->
    <title>333-02 copy 3</title>
    <desc>Created with Sketch.</desc>
    <defs></defs>
    <g id="Page-1" stroke="none" stroke-width="1" fill="none" fill-rule="evenodd">
        <g id="Artboard" transform="translate(-433.000000, -349.000000)">
            <g id="333-02-copy-3" transform="translate(434.000000, 350.000000)">
                <g id="隔离模式">
                    <path d="M39.0919748,27.5378473 L33.1666378,31.0056943 L30.7059731,33.2062537 L28.7082989,34.927502 C28.7082989,34.927502 23.185317,40.8674868 22.245235,43.8830161 C21.305153,46.8985454 19.5424992,51.2412175 19.7775197,54.8402765 C20.0125402,58.4395702 20.2083123,61.5496942 20.2083123,61.5496942 L22.5122183,67.7896593 C22.5122183,67.7896593 30.1184219,79.4081438 38.109119,82.6163834 L37.0357804,82.9731675 L26.8793693,79.564941 L20.3258225,75.5356286 L15.586399,70.6843046 L14.5288068,68.963291 L12.4239631,66.066768 L9.08408675,59.7695297 L8.10076096,55.0576331 C8.10076096,55.0576331 5.04972477,54.2924252 3.48284307,55.4270923 C1.91596137,56.5615248 0.858369099,60.6300364 0.858369099,60.6300364 L1.0933896,63.0296438 L3.20857414,68.4860924 L5.35971682,70.7627032 L8.88807965,73.5986668 L6.10708202,77.2176776 L7.98724606,82.6163834 L15.2919183,92.3575266 L18.6024172,94.0785401 L21.9709661,95.369535 L28.159996,94.5479928 L34.6174194,90.2839541 L38.6574219,88.2045134 L41.8301987,86.6041492 L42.9660528,89.8384435 L43.2795701,93.2185028 L41.0055117,98.3430483 L41.6231456,104.032345 L44.9985101,107.732102 L48.8692978,108.930849 L53.8554928,109.453116 L58.1251103,109.76624 L62.786272,108.51421 L65.3714975,107.069704 L67.4387379,104.575737 L68.1524952,103.859117 L71.0660443,102.106885 L74.1462231,98.6345784 L76.9913813,94.4052792 L77.9859881,92.748346 L77.9232376,91.197509 L76.9819805,90.832979 L74.8120362,93.0354163 L72.6533728,94.0257267 L70.9727412,94.5090283 L74.3412901,89.8929 L76.9657641,86.1602817 L76.769992,84.5383227 L75.1248485,83.7508158 L72.3306897,83.6113884 L70.5027002,83.6334527 L75.9366093,81.1298615 L81.8619462,75.7701202 L85.2697435,72.1813892 L89.0303066,65.6379229 L90.5579399,59.4176749 L90.5579399,54.527621 L89.1868303,46.7818865 L87.5809352,42.2439221 L82.0969667,34.4197889 L76.0256821,30.1165509 L70.5417136,27.5387862 L70.0932945,29.0433821 C70.0932945,29.0433821 63.8149567,26.2205631 54.6637283,26.6233535 C45.5122649,27.0261439 39.2842216,29.2168448 39.2842216,29.2168448 L39.0919748,27.5378473 L39.0919748,27.5378473 Z" id="Shape"></path>
                    <path d="M44.507388,36.2961253 C44.507388,36.2961253 41.7085123,40.8548824 40.0300752,50.0235028 C38.3514043,59.1923576 39.7617123,79.0883342 55.6930726,89.6138448 C55.6930726,89.6138448 61.2604345,85.3701637 63.364325,81.8536895 C65.4682155,78.3372153 69.6902563,70.2887092 70.2674236,64.0368869 C70.8448246,57.7855335 69.1306214,47.4705426 69.1306214,47.4705426 L67.3843923,40.8333147 L66.1725513,37.2394781 C66.1725513,37.2394781 58.6623634,32.377132 54.9354383,33.0862876 C51.2085131,33.7956777 44.507388,36.2961253 44.507388,36.2961253 L44.507388,36.2961253 Z" id="Shape" stroke="#3D3A39"></path>
                    <polyline id="Shape" points="50.9230186 86.0866306 50.8156953 86.040266 47.1390613 84.4685522 46.16688 84.702717 45.4072545 86.6294245 45.0643777 89.7559921 45.2451082 92.0184919 45.9403862 93.933257 47.8666293 95.0223572 49.6943766 94.6106956 52.1335411 92.85446 53.8177261 93.791119 55.3077072 93.933257 56.0029852 93.5642133 57.2441715 93.4398719 57.9603567 93.302183 59.6856591 95.043432 61.7450108 95.1879117 62.8194047 95.1879117 64.3776824 92.0184919 63.0807438 91.4164543 61.3665919 89.2349756 60.7577299 86.3271178 60.5254286 84.9652157 56.7505311 88.610224 55.3077072 89.2349756 51.1372004 86.529202"></polyline>
                    <path d="M71.6738197,30.4429808 L70.542897,29.9952565 C66.2545494,28.2973902 61.3949571,27.4363277 56.0989056,27.4363277 C47.0451502,27.4363277 39.8028541,29.9794767 39.7306223,30.0053839 L38.6266094,30.3987029 L38.6266094,19.3728169 L38.9787983,19.1266981 C39.2443562,18.9408726 45.5950858,14.5783288 55.0496567,14.5783288 C60.597103,14.5783288 66.051073,16.0953155 71.2597854,19.0876018 L71.6738197,19.3254773 L71.6738197,30.4429808 L71.6738197,30.4429808 Z M40.27897,20.2501303 L40.27897,28.0962558 C42.6869313,27.3677913 48.7574678,25.7876852 56.0989056,25.7876852 C61.1466309,25.7876852 65.8235193,26.5441766 70.0214592,28.0378468 L70.0214592,20.2819255 C65.1925536,17.5908698 60.1578112,16.2269714 55.0496567,16.2269714 C47.3248712,16.2269714 41.7028326,19.3692841 40.27897,20.2501303 L40.27897,20.2501303 Z" id="Shape" stroke="#FFFFFF" fill="#FFFFFF"></path>
                    <polygon id="Shape" stroke="#FFFFFF" fill="#FFFFFF" points="70.8135176 27.4415601 70.3389081 25.8640099 96.217934 18.0586313 56.8025486 1.76418267 18.5505322 15.3721125 39.6305725 24.2459795 38.9928235 25.7646923 15.4506438 15.8543444 15.4520542 14.730784 56.8465069 0 100 17.8381085 100 18.6385334"></polygon>
                    <path d="M55.2982416,90.4713935 L54.8434997,90.1251663 C48.2437803,85.097386 43.538546,79.1167791 40.8589589,72.3487393 C38.7138397,66.9307515 37.8588314,61.0086289 38.3177817,54.7470633 C39.0963372,44.1199939 43.3365424,36.3027453 43.5165687,35.9749991 L43.5979313,35.8271508 L43.7311976,35.7235166 C48.104669,32.3197289 55.0324104,32.1641606 55.3251286,32.159014 L55.3882547,32.1580783 L55.4509133,32.1667339 C62.3678999,33.121432 66.089068,35.953243 66.2440778,36.0734867 L66.4290139,36.2168903 L66.5106103,36.4363235 C69.698012,45.0398353 71.1272342,53.2110311 70.7587647,60.7232254 C70.4625395,66.7599773 69.0120414,72.3845317 66.4474842,77.4406184 C62.0702719,86.071033 56.034713,90.0004777 55.7798705,90.1632981 L55.2982416,90.4713935 L55.2982416,90.4713935 Z M44.8728452,36.9112162 C44.2904483,38.0334134 40.6296006,45.417878 39.9457343,54.9253236 C38.9731244,68.4454955 44.1590524,79.7243142 55.3611339,88.4569595 C56.8392204,87.3672796 61.5430519,83.5337491 65.0292506,76.6185627 C68.8582007,69.0228527 71.9602652,56.035356 65.062684,37.2405999 C64.2717371,36.6988011 60.890281,34.5833062 55.2940332,33.7982126 C54.6302737,33.8202027 48.6220694,34.0997578 44.8728452,36.9112162 L44.8728452,36.9112162 Z" id="Shape" stroke="#FFFFFF" fill="#FFFFFF"></path>
                    <path d="M27.3485864,69.4614491 C23.6519179,69.4614491 19.9742886,68.691393 17.3348856,66.9389735 C12.3416683,63.6235852 10.2894261,50.4843268 10.3004735,44.1865029 C10.3075251,40.2113359 11.0608679,39.715088 11.3826546,39.5030162 C11.7984622,39.229208 12.7689935,38.5896939 24.6074057,38.5896939 L24.7825197,38.5896939 C31.1312841,38.5932284 37.62202,38.7793803 38.3412803,38.8005875 C41.2253728,38.8856518 42.8507599,40.0428566 42.9184549,40.0921044 L41.9533299,41.4279208 L42.4358924,40.7601304 L41.958031,41.4314553 C41.944868,41.4222655 40.6372717,40.5188399 38.2930945,40.4495631 C26.7995041,40.1102483 13.8918386,40.1425304 12.327095,40.8621605 C11.887312,41.5836757 11.63134,45.9827506 12.6867251,52.2329762 C13.8347209,59.0327032 15.9121137,64.0163892 18.243598,65.5642773 C23.9962696,69.3836894 35.6254853,68.0137059 39.1684295,64.2044261 L40.3716626,65.3291133 C38.0046853,67.8737386 32.657009,69.4614491 27.3485864,69.4614491 L27.3485864,69.4614491 Z" id="Shape" stroke="#FFFFFF" fill="#FFFFFF"></path>
                    <path d="M82.4472064,69.4614491 C81.6691831,69.4614491 80.8751762,69.4282311 80.0698868,69.3610883 C75.2839857,68.9617658 71.2446108,67.4528213 69.2645297,65.3238079 L70.4677627,64.1993439 C73.9662821,67.9600434 85.9250412,69.3450683 91.6276466,65.5589252 C93.959131,64.0115798 96.0365238,59.0286471 97.1845195,52.2302692 C98.2408448,45.9768075 97.9834625,41.5767208 97.5432094,40.8600605 C96.0130185,40.1422223 83.0867839,40.1094755 71.5781501,40.4489585 C69.2339729,40.5182215 67.9263766,41.4214679 67.9132137,41.4306559 L66.9527897,40.0918063 C67.0204848,40.0425683 68.6458719,38.8855931 71.5299644,38.8005456 C72.2492246,38.7793427 78.7399606,38.5932277 85.0887249,38.5896939 L85.2638389,38.5896939 C97.1041316,38.5896939 98.0727824,39.2290812 98.48859,39.502835 C98.8101417,39.7148647 99.5634845,40.2110141 99.5707711,44.1853924 C99.5818186,50.4819668 97.5295764,63.6186182 92.536359,66.9333487 C90.0654886,68.5742227 86.4736534,69.4614491 82.4472064,69.4614491 L82.4472064,69.4614491 Z" id="Shape" stroke="#FFFFFF" fill="#FFFFFF"></path>
                    <path d="M44.2060086,84.0397779 C44.0244601,84.0253827 34.3963167,83.6470966 29.115523,81.6261098 C22.0851348,78.9353939 16.7662555,74.5401488 13.7339056,68.9161229 L15.0993743,68.1751259 C21.9811591,80.9400976 38.8646987,82.3557795 39.0338635,82.3689948 L44.2060086,84.0397779 L44.2060086,84.0397779 Z" id="Shape" stroke="#FFFFFF" fill="#FFFFFF"></path>
                    <path d="M21.597802,86.6068408 C17.0997692,86.796286 11.972583,82.1018371 11.972583,82.1018371 C15.1990888,83.5553436 20.9292234,85.5792934 22.5716321,84.8259616 C22.7425541,84.7472798 22.77773,84.6681296 22.7970886,84.5999855 C22.8008658,84.587106 23.0969102,83.2467047 16.7031547,79.1793688 C13.2835354,77.0036754 9.71400537,75.1710442 9.6781212,75.1527788 L9.64294528,75.1335767 C0.915066506,70.1171411 -1.42472269,62.3356008 0.774834967,57.24142 C1.4684381,55.6349991 2.48098536,54.5187006 3.85261034,54.1435568 C9.7928561,52.5186363 15.2099485,68.2140241 15.3034362,68.266947 L13.8196732,68.7432531 C13.8196732,68.7432531 8.63157842,54.3763239 4.36915345,55.7005673 C3.48361725,55.9757196 2.79237492,56.7323298 2.29400997,57.8865643 C0.382233874,62.3142911 2.57211225,69.167573 10.4548245,73.705595 C10.74237,73.8538259 14.2401317,75.6649133 17.5953011,77.7993923 C24.2426066,82.0283071 24.7166553,83.8941907 24.3870876,85.0472543 C24.2251367,85.6130142 23.8379654,86.0506819 23.2664157,86.3131889 C22.8192801,86.5185579 22.2479664,86.6068408 21.597802,86.6068408 L21.597802,86.6068408 Z" id="Shape" stroke="#FFFFFF" fill="#FFFFFF"></path>
                    <path d="M22.717635,95.616686 C19.4699529,95.616686 16.2185273,93.9009714 13.0440766,90.5104259 C8.62913811,85.7945469 5.38192395,78.6581179 5.5887499,77.0064155 C5.86295805,74.8148144 8.54771794,73.0818118 8.85280961,72.8916441 L9.72152538,74.2779527 C9.11882895,74.6557183 7.36455186,76.0060492 7.21364379,77.209666 C7.16802042,78.2093315 10.0387833,85.2691327 14.8757964,90.0469213 C17.6665429,92.8034187 20.4488666,94.1224444 23.1490683,93.9691888 C27.7626439,93.7063649 30.3919538,91.8240783 33.1759153,89.8310552 C35.965492,87.8342942 39.2938923,85.7564666 44.2060086,85.3142216 C44.2060086,85.3142216 38.5030873,87.9270419 34.1302626,91.1601267 C31.3107383,93.2449629 28.3304794,95.3120439 23.2424207,95.6017343 C23.0676481,95.6115464 22.8924076,95.616686 22.717635,95.616686 L22.717635,95.616686 Z" id="Shape" stroke="#FFFFFF" fill="#FFFFFF"></path>
                    <g id="Group" transform="translate(40.343348, 85.754875)" stroke="#FFFFFF" fill="#FFFFFF">
                        <path d="M14.5626194,24.2923236 C7.83393327,24.2923236 3.37881767,22.6632943 1.32130694,19.450826 C-1.19468365,15.5223086 0.702547418,10.4129094 1.63504084,8.39800793 C3.34939776,4.69391679 1.25634778,1.04599097 1.23493008,1.00933076 L2.65673543,0.178601019 C2.76170566,0.357672041 5.20191056,4.61284133 3.13051364,9.08844187 C2.31216946,10.857297 0.632174997,15.3211474 2.7094559,18.5646359 C4.44452444,21.2734964 8.43245189,22.6473142 14.5626194,22.6473142 L14.5626194,24.2923236 L14.5626194,24.2923236 Z" id="Shape"></path>
                    </g>
                    <g id="Group" transform="translate(54.506438, 83.611003)" stroke="#FFFFFF" fill="#FFFFFF">
                        <path d="M0.129245861,26.4360349 C6.75112746,26.4360349 11.1355269,24.8052352 13.1603788,21.5892756 C15.636433,17.6564887 13.7693167,12.5415367 12.8516248,10.5244454 C11.1644799,6.81632872 13.6685605,1.09394383 13.6894066,1.05724378 L12.2901696,0.225611211 C12.1868656,0.404876846 9.3411404,6.73516514 11.3798896,11.2156297 C12.1854758,12.9864072 13.8385721,17.4551089 11.7942639,20.7021224 C10.0867362,23.4139268 6.16210914,24.7892377 0.129245861,24.7892377 L0.129245861,26.4360349 L0.129245861,26.4360349 Z" id="Shape"></path>
                    </g>
                    <path d="M29.7864955,35.1594989 C32.5365519,32.4434961 35.8161712,30.1542525 39.4849785,28.4268248 L39.4849785,26.5840114 C34.8275903,28.664553 30.7371823,31.6026914 27.4678112,35.1594989 L29.7864955,35.1594989 L29.7864955,35.1594989 Z" id="Shape" stroke="#FFFFFF" fill="#FFFFFF"></path>
                    <path d="M23.5118645,68.1751259 C21.6064507,64.4023559 20.674915,60.7604048 20.5684606,55.9729043 C20.3333041,45.3857658 24.2285776,40.9803508 29.6137339,35.1594989 L27.2774789,35.1594989 C23.0389199,40.3295563 19.1979502,44.9011466 18.8941366,55.9729043 C18.7666305,60.6182718 19.8658617,64.3785492 21.6545345,68.1751259 L23.5118645,68.1751259 L23.5118645,68.1751259 Z" id="Shape" stroke="#FFFFFF" fill="#FFFFFF"></path>
                    <path d="M24.2097759,68.6039003 L21.888412,68.6039003 C25.0927371,73.6815055 29.5146068,77.9224021 34.6915849,81.3518449 C39.4355589,84.4949894 45.0643777,84.0132625 45.0643777,84.0132625 L41.6785158,82.6672121 C34.3939681,79.6656825 28.3952474,74.7188352 24.2097759,68.6039003 L24.2097759,68.6039003 Z" id="Shape" stroke="#FFFFFF" fill="#FFFFFF"></path>
                    <path d="M85.8369099,38.1609195 C79.467268,29.9851358 75.3012852,28.1569638 70.3862661,26.155237 L70.3862661,27.9296118 C74.3097331,29.6106599 78.5673383,31.5768337 83.7487234,38.1606856 L85.8369099,38.1606856 L85.8369099,38.1609195 Z" id="Shape" stroke="#FFFFFF" fill="#FFFFFF"></path>
                    <g id="Group" transform="translate(64.377682, 39.018468)" stroke="#FFFFFF" fill="#FFFFFF">
                        <path d="M21.6233507,29.0363765 L23.4624634,29.0363765 C25.4800714,24.9980959 26.5282008,20.620547 26.5282008,16.12536 C26.5282008,10.2839226 24.7425424,4.80575159 21.6346538,0.0856405355 L19.6438908,0.0856405355 C22.9592389,4.74410923 24.8798283,10.240867 24.8798283,16.12536 C24.8798283,20.7000703 23.7283224,25.0849128 21.6233507,29.0363765 L21.6233507,29.0363765 Z" id="Shape"></path>
                        <path d="M21.322405,29.5786882 C17.5353868,34.7382951 9.78827149,41.8951618 2.96047704,44.3140363 L0.193330548,45.2031451 L3.51150442,45.8661534 C10.1490296,43.5148031 15.0524669,39.0598483 19.8892628,34.3025636 C20.3950777,33.8051897 22.9130844,30.1562912 23.30681,29.5782176 L21.322405,29.5782176 L21.322405,29.5786882 Z" id="Shape"></path>
                    </g>
                    <path d="M54.6583674,94.3303629 C54.3008822,94.3303629 53.8712397,94.2367383 53.3524618,93.9995247 C51.4619877,93.1356565 51.4865117,91.5080821 51.5063196,90.2001389 C51.5077344,90.1046464 51.5091493,90.0093875 51.5098567,89.9150624 C51.5164593,89.0420885 52.5485917,88.0822609 52.7556313,87.8987473 L53.4180164,88.6302335 C53.0355356,88.9711112 52.5044956,89.6092063 52.5021375,89.9223002 C52.5014301,90.01896 52.5000152,90.1165538 52.4983646,90.214848 C52.4797357,91.4471443 52.4637008,92.5115701 53.7684274,93.1076392 C54.912097,93.6294623 55.1759664,93.2035986 55.4808663,92.7086254 C55.5204821,92.6441855 55.5584472,92.5830143 55.5954691,92.528147 C55.7065347,92.3240873 55.6721067,91.3553875 55.5190672,90.4588324 L56.4974353,90.2949309 C56.6068503,90.933493 56.8181345,92.4830858 56.4210335,93.0730844 C56.3910859,93.1176787 56.3604308,93.1674095 56.3278893,93.219942 C56.0828846,93.6177884 55.6440456,94.3303629 54.6583674,94.3303629 L54.6583674,94.3303629 Z" id="Shape" stroke="#FFFFFF" fill="#FFFFFF"></path>
                    <path d="M56.4695551,94.3303629 C55.9025282,94.3303629 55.4524961,94.216548 55.3648069,94.192926 L55.6471844,93.0371202 C55.976587,93.1242113 56.9579796,93.2640342 57.5411358,92.8689032 C57.806021,92.6889946 57.9670875,92.4107803 58.0341039,92.0175582 C58.3598717,90.1003617 57.1894701,88.7123926 57.1774299,88.6985534 L58.0204734,87.8987473 C58.0840822,87.9729536 59.5750265,89.7410216 59.1520282,92.2272926 C59.0298084,92.9464501 58.6840493,93.5157632 58.1522345,93.8746261 C57.6211011,94.2325346 56.995009,94.3303629 56.4695551,94.3303629 L56.4695551,94.3303629 Z" id="Shape" stroke="#FFFFFF" fill="#FFFFFF"></path>
                    <path d="M49.2219374,95.1879117 C48.8716002,95.1879117 48.4998188,95.1276995 48.1094844,94.9895791 C46.2457581,94.3283941 46.3110548,91.1778256 46.3756287,90.2279897 C46.3987596,89.88763 46.634165,86.8949461 47.7764954,86.6437556 C48.9383426,86.3872792 51.4453977,87.7813523 51.9357252,88.0635683 L51.4726248,88.7957669 C50.3970367,88.1773279 48.6296893,87.3686 48.0032267,87.4722477 C47.6565037,87.7381466 47.0394381,89.9053259 47.308817,92.0403308 C47.4579633,93.2236612 47.8533576,93.9861958 48.4219928,94.1877458 C50.3661954,94.8778878 51.5249103,92.8982396 51.5730997,92.8134369 L52.360515,93.222742 C51.9205455,93.9919412 50.7852025,95.1879117 49.2219374,95.1879117 L49.2219374,95.1879117 Z" id="Shape" stroke="#FFFFFF" fill="#FFFFFF"></path>
                    <path d="M60.7373108,95.1679642 C61.0575972,95.1285763 61.4849529,94.9735733 61.8255019,94.7963278 C63.4518019,93.9490247 63.1089504,90.8628674 62.938791,89.9541655 C62.8777731,89.6284045 62.6387671,87.1604054 61.5648518,87.0466439 C60.4727463,86.9298704 57.9258817,88.7264217 57.5107296,89.0538046 L58.0198262,89.708107 C58.93072,88.990784 60.8699384,87.8420477 61.454559,87.8714727 C61.8027065,88.0890329 62.1135525,89.8281243 62.1174669,91.9175362 C62.1197694,93.0755403 61.7559645,93.7402689 61.2597622,93.9986071 C59.563234,94.8829812 58.3638291,93.2191902 58.3097189,93.1427314 L57.6378311,93.626044 C58.130119,94.3178808 59.3083403,95.3438196 60.7373108,95.1679642 L60.7373108,95.1679642 Z" id="Shape" stroke="#FFFFFF" fill="#FFFFFF"></path>
                    <path d="M68.4162479,104.192174 C67.9676213,104.192174 67.2699165,104.110852 67.0263151,103.548179 C66.735327,102.877156 67.3880263,102.201433 67.5949565,102.01035 L68.4083898,102.868695 C68.3643367,102.909591 68.3181406,102.960594 68.2764688,103.011361 C68.3662417,103.016767 68.4843515,103.017707 68.6386562,103.009011 C69.0656134,102.983392 70.6862888,101.721492 72.9522816,98.9969743 C75.0677798,96.4539026 76.6934558,93.90425 77.194946,92.3433868 C77.4306893,91.6089045 77.3504413,91.3017146 77.2749558,91.2415458 C77.1025537,91.3242779 76.7441763,91.7409938 76.5017656,92.0228 C76.0188491,92.584297 75.4178228,93.2828191 74.6022464,93.7716906 C72.216715,95.2002294 70.9356052,95.2444158 70.7884442,95.2444158 L70.7865392,95.2444158 L70.789873,94.0692441 L70.7882061,94.65683 L70.7808243,94.0692441 C70.7915399,94.068774 71.8831026,94.0250576 73.9845514,92.7669187 C74.6353457,92.3772318 75.144694,91.7849452 75.5940349,91.2622288 C76.2455436,90.5047131 77.0570719,89.5631655 78.019333,90.3239717 C78.5898794,90.7752376 78.6927492,91.5790551 78.325323,92.7128608 C77.2080428,96.162695 70.8829797,104.060554 68.7060454,104.182302 C68.6353224,104.186063 68.5343576,104.192174 68.4162479,104.192174 L68.4162479,104.192174 Z" id="Shape" stroke="#FFFFFF" fill="#FFFFFF"></path>
                    <path d="M48.9269857,114.482759 C48.8641153,114.482759 48.8005566,114.478033 48.7369979,114.468819 C46.848134,114.190982 46.105392,109.607129 45.9227468,108.20849 L47.0596905,108.051143 C47.3740422,110.451511 48.2069596,113.197522 48.8992218,113.299585 C48.9295097,113.303602 48.984808,113.312107 49.0866855,113.229889 C49.7243377,112.718157 50.2158278,110.484351 50.3610721,109.06114 L51.5021459,109.183994 C51.4356043,109.839134 51.0404848,113.159249 49.7924855,114.16145 C49.5283841,114.373372 49.2323887,114.482759 48.9269857,114.482759 L48.9269857,114.482759 Z" id="Shape" stroke="#FFFFFF" fill="#FFFFFF"></path>
                    <path d="M61.744428,114.053984 C61.7288792,114.053984 61.7133303,114.053512 61.6975423,114.05304 C59.2554189,113.980125 58.8377534,109.38153 58.7982833,108.857439 L59.9909982,108.769422 C60.1161065,110.407294 60.7567184,112.844635 61.7339026,112.873659 C61.8027959,112.877435 61.9011124,112.862097 62.0343539,112.736324 C62.8249522,111.991129 63.157458,109.20408 63.1816184,107.622369 L64.3776824,107.63983 C64.370506,108.109412 64.2674053,112.263439 62.8605949,113.589358 C62.5376576,113.893996 62.1527642,114.053984 61.744428,114.053984 L61.744428,114.053984 Z" id="Shape" stroke="#FFFFFF" fill="#FFFFFF"></path>
                    <path d="M29.6946312,63.8873822 C29.6943963,63.8873822 29.6948661,63.8873822 29.6946312,63.8873822 C29.304909,63.8873822 28.9236437,63.8268632 28.5614065,63.7072326 C26.9296944,63.1693641 25.8267735,61.5250301 25.4565492,59.0775292 C25.1201524,56.8547461 25.4189629,54.1672803 26.297541,51.5100741 C27.9781152,46.4274165 31.2514058,42.8774377 34.2573643,42.8774377 C34.6470865,42.8774377 35.0281169,42.9379567 35.3901192,43.0573527 C38.5743774,44.1072869 39.568768,49.4648603 37.6542196,55.2547458 C35.9736454,60.3371688 32.7003548,63.8873822 29.6946312,63.8873822 L29.6946312,63.8873822 Z M34.2573643,44.7539958 C32.4156392,44.7539958 29.60231,47.5012768 28.0819472,52.0986096 C27.2940459,54.4813693 27.0215457,56.8601412 27.3147183,58.7972183 C27.5700697,60.4847132 28.2393395,61.6251914 29.1505706,61.9254407 C29.3222927,61.9822065 29.5052906,62.0108241 29.6943963,62.0108241 C31.5361214,62.0108241 34.3492156,59.263543 35.8695785,54.6662102 C36.6574798,52.2834506 36.92998,49.9044441 36.6368074,47.967367 C36.381456,46.2798721 35.7121862,45.1396285 34.8009551,44.8391446 C34.629468,44.7826133 34.4467049,44.7539958 34.2573643,44.7539958 L34.2573643,44.7539958 Z" id="Shape" fill="#FFFFFF"></path>
                    <path d="M82.9953058,48.0227302 L82.9953058,50.2698545 C82.9953058,50.2698545 77.8103593,50.5754539 76.3246563,55.0510363 C76.3246563,55.0510363 79.9934096,53.8305535 85.4077253,55.9869792 L84.5165807,57.7813283 C84.5165807,57.7813283 77.8537847,55.6009716 73.4128447,58.3133153 C73.4128447,58.3130759 72.4611817,48.8603165 82.9953058,48.0227302 L82.9953058,48.0227302 Z" id="Shape" stroke="#FFFFFF" fill="#FFFFFF"></path>
                    <g id="Group" transform="translate(69.527897, 82.753455)" stroke="#FFFFFF" fill="#FFFFFF">
                        <path d="M7.31759657,2.39477976 C7.39651884,2.68079269 5.1230329,5.82948031 4.50238436,6.67872581 L5.90176443,6.78933599 C6.49284692,5.88177717 8.44420601,3.37708144 8.47567954,2.12079974 C8.54268002,-0.55119967 1.45445875,0.25917029 0.18431092,0.433184628 L0.350500715,1.57885615 C2.98712446,1.21925737 6.95350501,1.0746311 7.31759657,2.39477976 L7.31759657,2.39477976 Z" id="Shape"></path>
                        <path d="M6.04268002,6.6319826 L4.63400095,6.6319826 L4.63400095,6.49823222 C4.55364807,6.59680949 4.47496423,6.69260994 4.3989032,6.78563356 C1.99737721,9.7211999 -0.215546018,12.470719 0.49022413,14.1597225 C0.953028135,15.2669813 3.66523605,13.5460443 3.66523605,13.5460443 C3.17358131,13.6760922 1.72126848,13.9993609 1.58011445,13.6906706 C1.11111111,12.6646339 3.65164521,9.55968127 5.33214115,7.50529392 C5.58226037,7.19961182 5.81807344,6.90989646 6.04268002,6.6319826 L6.04268002,6.6319826 Z" id="Shape"></path>
                    </g>
                    <path d="M33.9359135,53.1680227 C33.8964088,53.1680227 33.8573505,53.1659366 33.8187385,53.1619961 C33.4377525,53.1225909 32.7786713,52.8687754 32.6467658,51.6131419 C32.5983335,51.1527971 32.6110554,50.5529116 32.6853778,49.7794117 C32.8268805,48.3084407 33.389097,46.7364071 34.5429913,46.7364071 C34.5820496,46.7364071 34.6211079,46.7384932 34.6599431,46.7424337 C35.0145926,46.7792892 35.6506852,47.0138657 35.9234238,48.1719135 C36.0519815,48.7187179 36.0852368,49.4124803 36.0164942,50.1252499 C35.8756611,51.5883399 35.0402595,53.1680227 33.9359135,53.1680227 L33.9359135,53.1680227 Z" id="Shape" fill="#FFFFFF"></path>
                    <polygon id="Shape" stroke="#FFFFFF" fill="#FFFFFF" points="17.5965665 16.2934263 17.5965665 40.3047914 18.4549356 40.3047914 18.4549356 16.3434874"></polygon>
                    <polygon id="Shape" stroke="#FFFFFF" fill="#FFFFFF" points="17.5965665 39.8351101 17.5965665 42.8774377 18.4072485 42.8774377 18.4549356 39.4472427"></polygon>
                    <path d="M13.9447807,52.7392484 L13.8908793,52.3126065 C13.8559475,52.0363229 13.0596874,45.5140585 15.4186253,42.7904575 C16.1077766,41.9947328 16.9937952,41.5911146 18.0514655,41.5911146 C20.8180182,41.5911146 21.7676544,44.6372813 21.883554,46.2479954 L21.888412,46.3154217 L20.5811297,52.4714225 L13.9447807,52.7392484 L13.9447807,52.7392484 Z M18.0512342,42.5308544 C17.2602948,42.5308544 16.6266643,42.8186497 16.1137913,43.4106858 C14.3470748,45.4496864 14.6323126,50.2989789 14.7646371,51.7656779 L19.8276668,51.5610495 L20.9549694,46.2526941 C20.9047694,45.739831 20.4934532,42.5308544 18.0512342,42.5308544 L18.0512342,42.5308544 Z" id="Shape" stroke="#FFFFFF" fill="#FFFFFF"></path>
                    <path d="M45.0654228,41.4106053 C45.0654228,41.4106053 46.9599731,42.5196573 48.3743274,42.4450623 C50.6897621,42.3226387 44.975771,38.4649808 45.0654228,41.4106053 L45.0654228,41.4106053 Z" id="Shape" stroke="#FFFFFF" fill="#FFFFFF"></path>
                    <path d="M64.806867,41.5345577 C64.806867,41.5345577 62.9452132,42.8976752 61.5160579,42.8772095 C59.1765613,42.8428473 64.7688881,38.1412919 64.806867,41.5345577 L64.806867,41.5345577 Z" id="Shape" stroke="#FFFFFF" fill="#FFFFFF"></path>
                </g>
            </g>
        </g>
    </g>
</svg>